<svg width="49" height="49" viewBox="0 0 49 49" fill="none" xmlns="http://www.w3.org/2000/svg">
<path d="M0 24.5C0 10.969 10.969 0 24.5 0C38.031 0 49 10.969 49 24.5C49 38.031 38.031 49 24.5 49C10.969 49 0 38.031 0 24.5Z" fill="#00A859"/>
<path fill-rule="evenodd" clip-rule="evenodd" d="M18.6465 17.5599C17.1735 17.5599 15.9794 18.754 15.9794 20.227V34.6685C15.9794 36.1415 17.1735 37.3356 18.6465 37.3356H33.0879C34.561 37.3356 35.7551 36.1415 35.7551 34.6685V20.227C35.7551 18.754 34.561 17.5599 33.0879 17.5599H18.6465ZM13.8977 20.227C13.8977 17.6044 16.0238 15.4783 18.6465 15.4783H33.0879C35.7106 15.4783 37.8367 17.6044 37.8367 20.227V34.6685C37.8367 37.2912 35.7106 39.4173 33.0879 39.4173H18.6465C16.0238 39.4173 13.8977 37.2912 13.8977 34.6685V20.227Z" fill="white"/>
<path fill-rule="evenodd" clip-rule="evenodd" d="M13.8947 10.2742L13.8977 10.2742H27.9489L27.9519 10.2742C29.1922 10.2777 30.3807 10.772 31.2578 11.649C32.1348 12.5261 32.6291 13.7146 32.6326 14.9549C32.6326 14.9631 32.6326 14.9714 32.6324 14.9796L32.5999 16.5408C32.5879 17.1155 32.1123 17.5717 31.5376 17.5597C30.9629 17.5478 30.5067 17.0722 30.5187 16.4975L30.5509 14.9496C30.546 14.2634 30.2713 13.6064 29.7858 13.121C29.298 12.6332 28.6371 12.3581 27.9473 12.3558H13.8994C13.0717 12.3586 12.2787 12.6887 11.6934 13.274C11.1081 13.8593 10.7781 14.6523 10.7753 15.48V29.5279C10.7776 30.2177 11.0526 30.8786 11.5404 31.3664C12.0282 31.8542 12.6892 32.1292 13.379 32.1315H14.9386C15.5134 32.1315 15.9794 32.5975 15.9794 33.1724C15.9794 33.7472 15.5134 34.2132 14.9386 34.2132H13.3773L13.3744 34.2132C12.134 34.2097 10.9455 33.7154 10.0685 32.8383C9.19142 31.9613 8.69714 30.7728 8.69361 29.5324L8.6936 29.5295V15.4783L8.69361 15.4752C8.69768 14.0971 9.24696 12.7765 10.2215 11.802C11.196 10.8275 12.5165 10.2782 13.8947 10.2742Z" fill="white"/>
<path fill-rule="evenodd" clip-rule="evenodd" d="M25.8672 21.2029C26.4421 21.2029 26.9081 21.6689 26.9081 22.2437V32.652C26.9081 33.2268 26.4421 33.6928 25.8672 33.6928C25.2924 33.6928 24.8264 33.2268 24.8264 32.652V22.2437C24.8264 21.6689 25.2924 21.2029 25.8672 21.2029Z" fill="white"/>
<path fill-rule="evenodd" clip-rule="evenodd" d="M19.6223 27.4478C19.6223 26.873 20.0883 26.407 20.6631 26.407H31.0714C31.6462 26.407 32.1122 26.873 32.1122 27.4478C32.1122 28.0226 31.6462 28.4886 31.0714 28.4886H20.6631C20.0883 28.4886 19.6223 28.0226 19.6223 27.4478Z" fill="white"/>
</svg>
